<svg xmlns="http://www.w3.org/2000/svg" version="1.1" xmlns:xlink="http://www.w3.org/1999/xlink"
	xmlns:svgjs="http://svgjs.com/svgjs" width="200" height="200"><svg version="1.1" id="SvgjsSvg1000"
		xmlns="http://www.w3.org/2000/svg" xmlns:xlink="http://www.w3.org/1999/xlink" x="0px" y="0px"
		viewBox="0 0 200 200" style="enable-background:new 0 0 200 200;" xml:space="preserve">
		<style type="text/css">
			.favicon {
				fill: #2F4497;
			}
		</style>
		<g>
			<g>
				<g>
					<polygon class="favicon" points="34.14,11.19 34.14,3.9 28.37,0.58 25.09,11.19 27.56,14.5 34.14,15.17 39.08,19.14 44.01,19.8 
				45.66,17.15 39.9,16.49 			"></polygon>
					<polygon class="favicon" points="111.48,129.1 111.48,128.45 109,128.45 			"></polygon>
				</g>
				<g>
					<g>
						<polygon class="favicon" points="34.14,11.25 34.14,3.95 28.37,0.64 25.1,11.25 27.56,14.57 34.14,15.22 39.08,19.2 44.01,19.86 
					45.66,17.21 39.9,16.55 				"></polygon>
						<polygon class="favicon" points="111.48,129.16 111.48,128.5 109.01,128.5 				"></polygon>
						<path class="favicon" d="M141.99,87.19c-12.81-2.49-21.36-9.25-36.66-9.97c-13.64-0.65-24.45,4.39-32.43,7.5l0.74,6.02l-1.64,9.93
					l-1.65,7.29l-0.81,7.95v5.3v5.3l-4.94,3.96l-0.82,5.31l-0.83,4.64l-0.82,5.3l-0.83,4.64L60.46,155L58,158.31l4.94-2.65v3.97
					L58,162.95l-1.64,4.65l2.47-0.66v7.28v3.3v5.31l2.46,1.32l2.47,0.66l-2.47,3.97h3.3l4.11,0.66l1.64,2.65l-1.64,4.64l1.23-0.67
					l-1.23,0.67l4.94,3.31l4.11-1.32l2.46-1.31h5.77l-4.93-3.32l-4.12-2.65l-0.81-3.33v-2.65v-5.96l2.47-2.64l3.28-2.65l1.65-3.32
					l-0.83-4.64l-1.65-2.65l5.76-3.97l0.81-3.97l3.29-3.96l-3.29-2v-3.97h4.12l3.29,0.67l1.64-5.97h4.94l9.05-3.31l0.83-2.66v-5.29
					l-2.46-0.66h2.46v-1.98v1.98l7.4-1.32l4.13-0.66l1.63-3.31l4.94-5.3l4.11-3.31l2.47-8.63l9.88-6.62l11.51-6.62l1.85-2.59
					l-7.44-0.46C151.95,89.68,154.8,89.68,141.99,87.19z"></path>
					</g>
					<g>
						<path class="favicon" d="M64.05,62.63c0,0,20.99-9.25,30.96-7.83c9.97,1.42,21.71,8.89,32.04,11.38
					c10.32,2.49,25.97,0.71,34.16-1.42l16.69-4.14l1.04-1.68l-0.81-5.29l-13.16-7.96l-9.06-1.31l-7.41-3.31l-9.04-0.66l-2.47,2.65
					l0.82-4.65l-3.29-1.32l-4.93,3.32l4.93-3.32l-0.82-5.96l-7.4-5.96l-9.05-0.67l-4.93-1.99l-4.13-3.31l-5.75-3.3l-2.48-1.33
					l-6.57-1.33h-4.11l-4.95-0.65l-4.12-0.68l-4.11-0.66l-4.1,1.98l-3.3-1.33l1.64-3.31l-9.87,2.65l-1.64,1.98l-4.94,3.32
					l-8.23,0.66l4.11,0.66l1.64,6.62v7.28l-6.58,5.96l-1.64,6.63l-2.47,9.28l4.11,5.96l6.58,7.29l1.01,1.49l10.55-5.06L64.05,62.63z
					"></path>
						<polygon class="favicon" points="34.14,11.25 34.14,3.95 28.37,0.64 25.1,11.25 27.56,14.57 34.14,15.22 39.08,19.2 44.01,19.86 
					45.66,17.21 39.9,16.55 				"></polygon>
						<polygon class="favicon" points="111.48,129.16 111.48,128.5 109.01,128.5 				"></polygon>
					</g>
				</g>
			</g>
		</g>
	</svg>
	<style>
		@media (prefers-color-scheme: light) {
			:root {
				filter: none;
			}
		}

		@media (prefers-color-scheme: dark) {
			:root {
				filter: contrast(0.7407407407407407) brightness(2);
			}
		}
	</style>
</svg>