<?xml version="1.0" encoding="utf-8" ?>
<svg xmlns="http://www.w3.org/2000/svg" xmlns:xlink="http://www.w3.org/1999/xlink" width="512" height="512">
	<path fill="white" d="M303.097 146.118C315.47 145.497 327.057 147.219 337.474 154.384C353.03 165.084 362.887 185.679 359.834 204.625L357.615 215.812C360.193 217.206 362.873 218.387 365.362 219.944C385.278 232.4 391.092 259.936 382.931 281.012C378.224 293.169 368.358 301.678 356.72 306.794C357.113 308.911 357.93 311.038 358.476 313.125C364.294 335.334 359.497 354.92 343.534 370.878L338.602 374.993C327.583 383.091 314.312 387.151 300.617 384.942C283.821 382.234 270.506 368.608 268.516 351.656C268.016 347.398 268.254 342.97 268.251 338.686L268.204 187.876C268.168 166.951 280.888 147.218 303.097 146.118Z"/>
	<path fill="white" d="M200.977 145.838C203.811 145.756 206.813 145.543 209.63 145.837C223.844 147.323 237.543 158.55 241.815 172.098C243.499 177.44 243.91 182.592 243.961 188.159L243.985 349.179C243.34 367.377 229.116 382.558 211.257 385.26C197.808 387.295 184.193 383.177 173.371 375.205C168.283 371.148 164.075 366.924 160.375 361.537L157.345 356.406C149.32 340.67 149.705 323.454 155.065 307.099C116.922 289.711 114.347 233.179 154.069 216.14L154.131 215.874C152.769 212.499 152.316 209.047 151.851 205.46C148.466 179.332 166.799 149.877 193.813 146.739L200.977 145.838Z"/>
	<path fill="white" d="M191.581 32.6357C215.186 31.4077 237.177 46.4078 242.751 69.75C244.492 77.041 243.964 84.826 243.969 92.265L243.91 116.882C240.763 117.304 237.234 116.968 234.036 116.968L212.506 116.963C212.27 114.435 212.406 111.793 212.4 109.251L212.365 96.1839C212.352 92.3463 212.874 88.9428 210.588 85.6472L210.375 85.3456C206.875 80.312 201.622 77.2552 195.775 75.868C190.454 77.3098 185.319 81.0949 180.548 83.8402L106.919 126.729C84.5578 139.964 67.5979 147.885 67.6959 177.33L67.749 320.382C67.7498 325.532 67.5862 330.71 68.1537 335.836C70.6499 358.387 83.7157 366.464 100.881 376.461L189.349 428.567C190.767 429.425 193.47 431.169 195.082 431.266C198.595 431.476 203.932 427.828 205.13 424.183L205.268 423.75C206.328 420.51 206.031 416.573 206.016 413.198L238.812 413.001L243 412.983L243.015 424.593C243.007 428.545 243.004 432.594 242.061 436.46C235.658 462.716 212.224 479.348 185.25 474.436C174.822 472.537 166.511 466.273 157.522 461.125L87 419.731C77.7148 414.425 68.0955 409.155 59.5 402.778C37.6116 386.54 24.2042 359.864 23.3749 332.697L23.5522 176.776C23.5631 169.896 24.2911 162.599 25.7524 155.875C30.1389 135.691 42.867 115.407 59.8583 103.482C66.0387 99.1444 72.7977 95.4692 79.3007 91.6297L153.947 48.1722C165.713 41.5371 177.587 33.0402 191.581 32.6357Z"/>
	<path fill="white" d="M314.644 32.6477C330.608 31.3194 343.714 40.0473 357 47.7475L426.5 87.5242C451.728 102.079 468.715 111.525 481.334 139.937C489.118 157.463 488.5 175.625 488.499 194.334L488.511 325.078C488.509 329.385 488.696 333.778 488.329 338.069C486.188 363.132 472.523 389.974 451.102 404.137L356.927 459.953C349.268 464.513 341.669 469.836 333.22 472.814C312.585 480.088 288.38 471.302 276.591 453.075C270.684 443.941 266.302 424.276 268.625 413.255L269.111 413.122L289.138 413.016C294.518 413.036 300.245 412.678 305.565 413.527L305.25 416.75C305.019 418.978 304.873 422.616 306.113 424.592L306.33 424.886C307.813 426.986 313.581 431.632 316.439 431.081L316.776 430.976C320.584 430.06 324.066 427.773 327.45 425.852L410.505 376.899C434.654 362.643 444.357 354.994 444.381 325.978L444.431 180.104C444.438 164.988 440.715 151.379 428.711 140.906C424.736 137.437 419.811 135.085 415.272 132.461L340.023 88.7567C332.104 84.3026 324.38 79.3791 316.154 75.5164C311.128 76.5979 305.62 80.5251 302.31 84.3798C298.889 88.363 300.245 95.5314 300.239 100.363C300.231 105.821 300.011 111.389 300.359 116.833C296.775 117.323 292.781 116.984 289.156 116.982L268.253 116.869L268.254 92.8919C268.255 87.9138 267.975 82.7614 268.347 77.8034C270.188 53.2549 289.651 33.6152 314.644 32.6477Z"/>
</svg>
